<svg id="Capa_1" enable-background="new 0 0 512 512" height="512" viewBox="0 0 512 512" width="512" xmlns="http://www.w3.org/2000/svg"><g><g><path d="m462.62 252.876h-179.858v-165.33c0-5.523 4.477-10 10-10h159.858c5.523 0 10 4.477 10 10z" fill="#fe99a0"/><path d="m462.62 77.546h-30c5.523 0 10 4.477 10 10v165.329h30v-165.329c0-5.522-4.477-10-10-10z" fill="#fd8087"/><path d="m317.001 252.876h-139.813v-128.349c0-5.523 4.477-10 10-10h119.813c5.523 0 10 4.477 10 10z" fill="#fee97d"/><path d="m317.001 114.527h-30c5.523 0 10 4.477 10 10v128.349h30v-128.349c0-5.523-4.477-10-10-10z" fill="#fedf30"/><path d="m151.232 361.191h318.268c13.807 0 25-11.193 25-25v-154.521c0-5.523-4.477-10-10-10h-377.625z" fill="#ecf4fe"/><path d="m494.5 171.67h-30c5.523 0 10 4.477 10 10v154.521c0 13.807-11.193 25-25 25h30c13.807 0 25-11.193 25-25v-154.521c0-5.523-4.477-10-10-10z" fill="#d9ebfe"/><g><path d="m453.868 446.922h-292.508c-9.617 0-17.957-6.644-20.109-16.016l-66.967-291.739h-46.152c-11.395 0-20.632-9.237-20.632-20.632s9.237-20.632 20.632-20.632h62.584c9.617 0 17.957 6.644 20.109 16.016l66.967 291.739h276.076c11.395 0 20.632 9.237 20.632 20.632s-9.237 20.632-20.632 20.632z" fill="#7acaa6"/></g><path d="m494.5 443.013c0 27.13-11.994 48.124-39.124 48.124-3.251 0-6.427.684-9.502.082-22.583-4.426-39.622-24.326-39.622-48.206s17.039-43.78 39.622-48.206c3.074-.602 6.251.082 9.502.082 27.13 0 39.124 20.993 39.124 48.124z" fill="#7a6d79"/><path d="m455.376 393.889c-3.251 0-6.426.324-9.5.927 22.583 4.426 39.624 24.318 39.624 48.197s-17.041 43.771-39.624 48.197c3.074.603 6.249.927 9.5.927 27.13 0 49.124-21.994 49.124-49.124 0-27.131-21.994-49.124-49.124-49.124z" fill="#685e68"/><circle cx="455.376" cy="443.013" fill="#ecf4fe" r="16.084"/><path d="m202.008 443.013c0 27.13-11.994 48.124-39.124 48.124-3.251 0-6.428.684-9.502.082-22.583-4.426-39.622-24.326-39.622-48.206s17.039-43.78 39.622-48.206c3.074-.602 6.251.082 9.502.082 27.13 0 39.124 20.993 39.124 48.124z" fill="#7a6d79"/><path d="m162.884 393.889c-3.251 0-6.426.324-9.5.927 22.583 4.426 39.624 24.318 39.624 48.197s-17.041 43.771-39.624 48.197c3.074.603 6.249.927 9.5.927 27.13 0 49.124-21.994 49.124-49.124 0-27.131-21.994-49.124-49.124-49.124z" fill="#685e68"/><circle cx="162.884" cy="443.013" fill="#ecf4fe" r="16.084"/></g><g><path d="m241.827 244.26h166.153c4.142 0 7.5-3.358 7.5-7.5s-3.358-7.5-7.5-7.5h-166.153c-4.143 0-7.5 3.358-7.5 7.5s3.358 7.5 7.5 7.5z"/><path d="m387.98 288.601h-126.153c-4.142 0-7.5 3.358-7.5 7.5s3.357 7.5 7.5 7.5h126.153c4.142 0 7.5-3.358 7.5-7.5s-3.357-7.5-7.5-7.5z"/><path d="m455.376 466.597c13.004 0 23.584-10.58 23.584-23.584s-10.58-23.584-23.584-23.584-23.584 10.58-23.584 23.584 10.58 23.584 23.584 23.584zm0-32.169c4.733 0 8.584 3.851 8.584 8.584s-3.851 8.584-8.584 8.584-8.584-3.851-8.584-8.584 3.851-8.584 8.584-8.584z"/><path d="m162.884 419.428c-13.004 0-23.584 10.58-23.584 23.584s10.58 23.584 23.584 23.584 23.584-10.58 23.584-23.584-10.58-23.584-23.584-23.584zm0 32.169c-4.733 0-8.584-3.851-8.584-8.584s3.851-8.584 8.584-8.584 8.584 3.851 8.584 8.584-3.851 8.584-8.584 8.584z"/><path d="m177.001 368.691h302.499c17.921 0 32.5-14.58 32.5-32.5v-154.521c0-9.649-7.851-17.5-17.5-17.5h-14.38v-76.624c0-9.649-7.851-17.5-17.5-17.5h-34.441v-7.195c0-27.839-22.648-50.488-50.487-50.488s-50.488 22.649-50.488 50.488v7.195h-34.44c-9.649 0-17.5 7.851-17.5 17.5v19.48h-25.396c-4.143 0-7.5 3.358-7.5 7.5s3.357 7.5 7.5 7.5h67.135c1.379 0 2.5 1.122 2.5 2.5v39.644h-134.815v-39.644c0-1.378 1.121-2.5 2.5-2.5h29.992c4.143 0 7.5-3.358 7.5-7.5s-3.357-7.5-7.5-7.5h-29.992c-9.649 0-17.5 7.851-17.5 17.5v39.644h-39.633l-11.92-51.929c-2.951-12.858-14.227-21.838-27.419-21.838h-62.584c-15.512 0-28.132 12.62-28.132 28.132s12.62 28.132 28.132 28.132h40.179l29.404 128.096c.927 4.037 4.95 6.557 8.987 5.632 4.037-.927 6.559-4.951 5.632-8.988l-30.74-133.918c-.782-3.407-3.814-5.822-7.31-5.822h-46.152c-7.241 0-13.132-5.891-13.132-13.132s5.891-13.132 13.132-13.132h62.584c6.158 0 11.422 4.192 12.8 10.194l62.175 270.863c-.93-.046-1.866-.071-2.807-.071-8.198 0-15.988 1.766-23.029 4.914l-20.283-88.359c-.927-4.037-4.95-6.556-8.987-5.632-4.037.927-6.559 4.951-5.632 8.988l21.452 93.453c-12.308 10.395-20.145 25.927-20.145 43.261 0 31.223 25.401 56.624 56.624 56.624 27.316 0 50.175-19.442 55.469-45.215h181.555c5.294 25.773 28.153 45.215 55.469 45.215 31.223 0 56.624-25.401 56.624-56.624s-25.401-56.624-56.624-56.624c-12.977 0-24.94 4.399-34.5 11.769h-98.847c-4.143 0-7.5 3.358-7.5 7.5s3.357 7.5 7.5 7.5h85.262c-4.81 7.718-7.81 16.669-8.414 26.264h-179.496c-.604-9.595-3.605-18.546-8.414-26.264h78.376c4.142 0 7.5-3.358 7.5-7.5s-3.358-7.5-7.5-7.5h-91.96c-4.671-3.601-9.913-6.49-15.57-8.504zm165.202-305.84c0-19.568 15.92-35.488 35.488-35.488 19.567 0 35.487 15.92 35.487 35.488v7.195h-70.976v-7.195zm-25.202 44.175h-26.738v-19.48c0-1.378 1.121-2.5 2.5-2.5h169.857c1.379 0 2.5 1.122 2.5 2.5v76.624h-130.619v-39.644c0-9.649-7.851-17.5-17.5-17.5zm177.499 72.144c1.379 0 2.5 1.122 2.5 2.5v154.521c0 9.649-7.851 17.5-17.5 17.5h-305.942l-40.06-174.521zm-331.616 305.467c-22.951 0-41.624-18.672-41.624-41.624s18.673-41.624 41.624-41.624 41.624 18.672 41.624 41.624c0 22.951-18.673 41.624-41.624 41.624zm334.116-41.624c0 22.952-18.673 41.624-41.624 41.624s-41.624-18.672-41.624-41.624 18.673-41.624 41.624-41.624 41.624 18.672 41.624 41.624z"/></g></g></svg>